# xmcd CD database file
#
# Track frame offsets:
#	150
#	26242
#	45660
#
# Disc length: 956 seconds
#
# Revision: 5
# Processed by: cddbd v1.5PL3 Copyright (c) Steve Scherf et al.
# Submitted via: CDex 1.50
#
DISCID=2003ba03
DTITLE=ribbon - それは言わない約束
DYEAR=1991
DGENRE=JPop
TTITLE0=それは言わない約束
TTITLE1=楽園へ行こう
TTITLE2=それは言わない約束 (ｶﾗｵｹ)
EXTD=matsu,mmasa-yk YEAR: 1991/11/13
EXTT0=
EXTT1=
EXTT2=
PLAYORDER=
